<?xml version="1.0" standalone="no"?>
<!DOCTYPE svg PUBLIC "-//W3C//DTD SVG 20010904//EN"
 "http://www.w3.org/TR/2001/REC-SVG-20010904/DTD/svg10.dtd">
<svg version="1.0" xmlns="http://www.w3.org/2000/svg"
 width="500.000000pt" height="500.000000pt" viewBox="0 0 500.000000 500.000000"
 preserveAspectRatio="xMidYMid meet">

<g transform="translate(0.000000,500.000000) scale(0.100000,-0.100000)"
fill="#6f48c9" stroke="none">
<path d="M4327 3050 c-75 -23 -135 -99 -220 -280 -92 -196 -197 -479 -197
-531 0 -34 39 -79 68 -79 34 0 72 40 112 119 21 42 46 83 54 91 13 10 52 12
194 6 177 -7 222 -17 222 -49 0 -6 11 -35 24 -64 25 -52 63 -83 105 -83 36 0
82 50 88 96 11 85 -107 374 -263 644 -49 84 -64 103 -99 120 -45 22 -47 22
-88 10z m142 -463 c1 -10 -204 -6 -213 4 -5 5 29 107 80 239 4 9 30 -33 69
-110 35 -69 64 -129 64 -133z"/>
<path d="M1365 3005 c-28 -11 -56 -14 -91 -9 -87 10 -92 -1 -130 -286 -21
-158 -23 -474 -4 -521 25 -59 106 -69 139 -17 7 12 18 65 24 120 6 54 16 98
21 98 6 0 78 -40 161 -90 239 -142 267 -150 328 -92 29 27 36 76 17 112 -5 10
-55 47 -112 81 -56 35 -106 67 -111 70 -5 4 10 20 34 35 89 57 131 97 155 148
35 74 32 146 -6 223 -30 60 -62 89 -135 122 -46 21 -240 25 -290 6z m225 -163
c44 -22 52 -60 18 -92 -50 -47 -181 -100 -248 -100 l-35 0 5 68 c3 40 11 77
20 87 42 51 172 72 240 37z"/>
<path d="M3171 2991 c-35 -37 -72 -113 -167 -339 l-77 -184 -68 132 c-97 187
-248 394 -295 406 -62 16 -102 -24 -90 -90 4 -19 39 -99 78 -178 38 -79 110
-228 159 -332 92 -194 115 -232 152 -253 31 -17 78 -16 105 3 29 20 38 37 207
424 94 214 145 342 145 364 0 72 -97 103 -149 47z"/>
<path d="M427 2994 c-140 -14 -174 -26 -196 -65 -12 -22 -12 -32 -2 -56 16
-40 61 -59 154 -68 l77 -7 0 -267 c0 -151 5 -282 10 -303 22 -79 115 -106 164
-48 14 17 28 47 32 67 9 47 -2 203 -26 387 -11 81 -20 154 -20 162 0 11 24 14
115 14 156 0 195 21 195 103 0 40 -30 73 -81 87 -46 13 -266 10 -422 -6z"/>
<path d="M2103 2995 c-12 -8 -30 -39 -40 -68 -16 -46 -18 -87 -18 -362 0 -304
0 -311 23 -353 40 -74 103 -81 148 -15 23 35 37 132 55 391 11 162 2 312 -22
365 -23 51 -101 73 -146 42z"/>
<path d="M3543 2995 c-55 -38 -74 -203 -64 -550 5 -163 9 -196 26 -230 25 -50
63 -73 101 -60 48 18 65 53 81 176 20 147 24 558 5 609 -21 60 -100 89 -149
55z"/>
</g>
</svg>
