<?xml version="1.0" standalone="no"?>
<!DOCTYPE svg PUBLIC "-//W3C//DTD SVG 20010904//EN"
 "http://www.w3.org/TR/2001/REC-SVG-20010904/DTD/svg10.dtd">
<svg version="1.0" xmlns="http://www.w3.org/2000/svg"
 width="500.000000pt" height="500.000000pt" viewBox="0 0 500.000000 500.000000"
 preserveAspectRatio="xMidYMid meet">

<g transform="translate(0.000000,500.000000) scale(0.100000,-0.100000)"
fill="#EF5B49" stroke="none">
<path d="M170 2928 c0 -77 3 -108 10 -98 5 8 10 26 10 39 0 38 40 97 80 120
28 16 55 21 105 21 l67 0 -5 -337 c-4 -331 -9 -379 -42 -455 -7 -17 4 -18 150
-18 146 0 157 1 150 18 -28 71 -35 160 -35 470 l0 322 63 0 c106 0 158 -41
182 -142 l13 -53 1 113 1 112 -375 0 -375 0 0 -112z"/>
<path d="M1085 3024 c29 -69 36 -148 36 -404 0 -255 -7 -336 -36 -402 -7 -17
4 -18 152 -18 l160 0 -21 58 c-19 53 -21 83 -24 410 l-3 352 65 0 c176 0 256
-58 256 -186 0 -52 -3 -59 -39 -95 -44 -44 -88 -52 -108 -20 -25 39 -93 30
-93 -12 0 -34 24 -51 61 -43 36 7 36 14 4 -132 -28 -132 12 -247 108 -306 38
-23 62 -30 122 -34 66 -4 81 -2 129 22 87 43 136 127 136 235 0 119 -71 211
-161 211 -87 0 -146 -100 -105 -178 20 -38 81 -68 107 -51 9 5 10 9 2 9 -21 0
-43 31 -43 59 0 37 41 74 81 73 44 -1 76 -26 90 -71 31 -103 -72 -195 -182
-162 -67 20 -106 64 -165 187 -30 62 -54 117 -54 122 0 5 33 8 74 8 65 0 79 3
122 30 83 51 116 122 95 202 -15 54 -58 96 -129 123 -53 21 -77 22 -351 27
-284 4 -294 4 -286 -14z"/>
<path d="M2145 3023 c35 -81 38 -121 38 -403 0 -282 -3 -322 -38 -402 -7 -17
4 -18 150 -18 l157 0 -7 23 c-29 92 -35 154 -35 397 0 241 9 335 35 403 7 16
-4 17 -150 17 -146 0 -157 -1 -150 -17z"/>
<path d="M2600 3031 c0 -6 5 -13 10 -16 22 -14 81 -150 149 -344 74 -212 116
-383 107 -438 l-5 -33 146 0 146 0 -7 30 c-19 98 153 642 243 769 12 16 21 32
21 35 0 3 -26 6 -57 6 l-58 0 3 -48 c2 -29 -6 -91 -22 -153 -32 -131 -159
-512 -172 -516 -11 -4 -154 428 -179 537 -8 36 -15 91 -15 123 l0 57 -155 0
c-90 0 -155 -4 -155 -9z"/>
<path d="M3565 3023 c35 -81 38 -121 38 -403 0 -282 -3 -322 -38 -402 -7 -17
4 -18 150 -18 l157 0 -7 23 c-29 92 -35 154 -35 397 0 241 9 335 35 403 7 16
-4 17 -150 17 -146 0 -157 -1 -150 -17z"/>
<path d="M4284 2967 c-2 -87 -25 -177 -105 -407 -60 -171 -112 -293 -145 -337
l-16 -23 61 0 62 0 -6 33 c-8 42 25 204 68 332 30 88 37 100 59 103 33 4 51
-20 52 -71 1 -30 5 -42 16 -42 11 0 15 13 16 49 1 51 13 66 51 66 17 0 26 -12
43 -57 56 -149 97 -332 86 -384 l-5 -29 154 0 c85 0 155 3 155 7 0 3 -13 27
-29 52 -79 123 -231 599 -231 722 l0 59 -142 0 -143 0 -1 -73z m90 -148 c42
-116 40 -109 22 -109 -8 0 -27 -15 -42 -32 -18 -22 -29 -28 -32 -20 -6 19 -44
52 -60 52 -15 0 -14 3 30 128 17 45 33 82 38 82 4 0 24 -45 44 -101z"/>
</g>
</svg>
